<svg id="Layer_1" data-name="Layer 1" xmlns="http://www.w3.org/2000/svg" xmlns:xlink="http://www.w3.org/1999/xlink" viewBox="0 0 96 96"><defs><style>.cls-1{fill:url(#linear-gradient);}.cls-2{fill:#fff;}</style><linearGradient id="linear-gradient" y1="48" x2="96" y2="48" gradientUnits="userSpaceOnUse"><stop offset="0" stop-color="#a6de57"/><stop offset="1" stop-color="#28a745"/></linearGradient></defs><path class="cls-1" d="M48,0A48,48,0,1,0,96,48,48,48,0,0,0,48,0Z"/><path class="cls-2" d="M61.24,19.36H32.86a5.42,5.42,0,0,0-5.41,5.41V70.18a5.47,5.47,0,0,0,3.69,5.15l15.19,5.06a5.49,5.49,0,0,0,1.67.25,5.42,5.42,0,0,0,5.41-5.41V29.82a5.48,5.48,0,0,0-3.68-5.15l-2.38-.79H61.24A2.79,2.79,0,0,1,64,26.67v39.1a2.79,2.79,0,0,1-2.79,2.78H60.1a2.26,2.26,0,0,0,0,4.52h1.14a7.32,7.32,0,0,0,7.31-7.3V26.67A7.32,7.32,0,0,0,61.24,19.36ZM33.16,23.92l15.11,5a.94.94,0,0,1,.62.87V75.23a.89.89,0,0,1-.89.89.79.79,0,0,1-.3,0l-15.1-5a1,1,0,0,1-.63-.87V24.77a.89.89,0,0,1,.89-.89A.79.79,0,0,1,33.16,23.92Z"/><path class="cls-2" d="M43.29,54.91a2.46,2.46,0,1,0-2.46-2.46A2.46,2.46,0,0,0,43.29,54.91Z"/></svg>