<svg id="Layer_1" data-name="Layer 1" xmlns="http://www.w3.org/2000/svg" viewBox="0 0 96 96"><defs><style>.cls-1{fill:#fff;}.cls-2{fill:#31ad57;}</style></defs><path class="cls-1" d="M48,0A48,48,0,1,0,96,48,48,48,0,0,0,48,0Z"/><path class="cls-2" d="M33,26.81A2.39,2.39,0,0,0,35.08,28a2.47,2.47,0,0,0,1.19-.32,2.4,2.4,0,0,0,.88-3.27L36,22.34a2.4,2.4,0,0,0-4.15,2.4Z"/><path class="cls-2" d="M60.25,28a2.37,2.37,0,0,0,1.24.36,2.4,2.4,0,0,0,2-1.15l1.25-2a2.39,2.39,0,0,0-4.08-2.5l-1.25,2A2.39,2.39,0,0,0,60.25,28Z"/><path class="cls-2" d="M68.26,38.57a2.39,2.39,0,0,0,1.2-.33l4.14-2.42a2.39,2.39,0,1,0-2.42-4.13L67.05,34.1a2.4,2.4,0,0,0,1.21,4.47Z"/><path class="cls-2" d="M22.65,35.32l4.08,2.5a2.46,2.46,0,0,0,1.25.35,2.4,2.4,0,0,0,1.25-4.44l-4.09-2.49a2.39,2.39,0,1,0-2.49,4.08Z"/><path class="cls-2" d="M48,29.69A18.31,18.31,0,1,0,66.31,48,18.3,18.3,0,0,0,48,29.69Zm0,32.14A13.83,13.83,0,1,1,61.83,48,13.83,13.83,0,0,1,48,61.83Z"/><path class="cls-2" d="M48,26.94a2.4,2.4,0,0,0,2.39-2.4V19.76a2.39,2.39,0,1,0-4.78,0v4.78A2.4,2.4,0,0,0,48,26.94Z"/><path class="cls-2" d="M63,69.18a2.39,2.39,0,1,0-4.14,2.4l1.19,2.07a2.4,2.4,0,0,0,2.08,1.2,2.35,2.35,0,0,0,1.19-.33,2.39,2.39,0,0,0,.88-3.27Z"/><path class="cls-2" d="M73.35,60.68l-4.08-2.5a2.4,2.4,0,0,0-2.5,4.09l4.09,2.49a2.36,2.36,0,0,0,1.24.35,2.39,2.39,0,0,0,1.25-4.43Z"/><path class="cls-2" d="M76.24,45.61H73.85a2.39,2.39,0,0,0,0,4.78h2.39a2.39,2.39,0,1,0,0-4.78Z"/><path class="cls-2" d="M26.54,57.76,22.4,60.17a2.4,2.4,0,1,0,2.42,4.14L29,61.9a2.4,2.4,0,0,0-2.41-4.14Z"/><path class="cls-2" d="M48,69.06a2.4,2.4,0,0,0-2.39,2.4v4.78a2.39,2.39,0,1,0,4.78,0V71.46A2.4,2.4,0,0,0,48,69.06Z"/><path class="cls-2" d="M24.54,48a2.39,2.39,0,0,0-2.39-2.39H19.76a2.39,2.39,0,1,0,0,4.78h2.39A2.39,2.39,0,0,0,24.54,48Z"/><path class="cls-2" d="M35.71,68a2.39,2.39,0,0,0-3.29.79l-1.25,2a2.39,2.39,0,0,0,4.08,2.5l1.25-2A2.4,2.4,0,0,0,35.71,68Z"/></svg>