<svg id="Layer_1" data-name="Layer 1" xmlns="http://www.w3.org/2000/svg" viewBox="0 0 96 96"><defs><style>.cls-1,.cls-2{fill:#28a745;}.cls-1{opacity:0.09;}.cls-2{stroke:#28a745;stroke-miterlimit:10;stroke-width:0.25px;}</style></defs><path class="cls-1" d="M48,0A48,48,0,1,0,96,48,48,48,0,0,0,48,0Z"/><path class="cls-2" d="M46.66,35.7a2.21,2.21,0,0,0-2.21,2.21V59.19a4.42,4.42,0,1,0,4.41,0V37.91A2.2,2.2,0,0,0,46.66,35.7Z"/><path class="cls-2" d="M60.39,41.29a2.21,2.21,0,0,0,0-4.42H56.6v-3.8h3.79a2.21,2.21,0,1,0,0-4.41H56.51a10.13,10.13,0,0,0-10-8.93,9.94,9.94,0,0,0-9.77,9.94V54.25a13.25,13.25,0,1,0,20.75,1.11,2.21,2.21,0,1,0-3.62,2.54,8.69,8.69,0,0,1,1.64,5A8.84,8.84,0,1,1,37.82,63a8.79,8.79,0,0,1,2.64-6.3,2.22,2.22,0,0,0,.67-1.59V29.86a5.65,5.65,0,0,1,5.15-5.7,5.53,5.53,0,0,1,5.9,5.51V47.31a2.21,2.21,0,0,0,2.21,2.21h6a2.21,2.21,0,1,0,0-4.42H56.6v-3.8Z"/></svg>