<svg id="Layer_1" data-name="Layer 1" xmlns="http://www.w3.org/2000/svg" xmlns:xlink="http://www.w3.org/1999/xlink" viewBox="0 0 96 96"><defs><style>.cls-1{fill:#fff;}.cls-2{fill:url(#linear-gradient);}</style><linearGradient id="linear-gradient" x1="17.36" y1="48" x2="78.64" y2="48" gradientUnits="userSpaceOnUse"><stop offset="0" stop-color="#a6de57"/><stop offset="1" stop-color="#28a745"/></linearGradient></defs><path class="cls-1" d="M48,0A48,48,0,1,0,96,48,48,48,0,0,0,48,0Z"/><path class="cls-2" d="M76.24,50.39H73.85a2.39,2.39,0,0,1,0-4.78h2.39a2.39,2.39,0,1,1,0,4.78ZM50.39,24.54V19.76a2.39,2.39,0,1,0-4.78,0v4.78a2.39,2.39,0,1,0,4.78,0ZM24.54,48a2.39,2.39,0,0,0-2.39-2.39H19.76a2.39,2.39,0,1,0,0,4.78h2.39A2.39,2.39,0,0,0,24.54,48ZM50.39,76.24V71.46a2.39,2.39,0,1,0-4.78,0v4.78a2.39,2.39,0,1,0,4.78,0ZM30,37a2.39,2.39,0,0,0-.79-3.29l-4.09-2.49a2.39,2.39,0,1,0-2.49,4.08l4.08,2.5A2.39,2.39,0,0,0,30,37ZM74.15,64a2.39,2.39,0,0,0-.8-3.29l-4.08-2.5a2.4,2.4,0,0,0-2.5,4.09l4.09,2.49a2.36,2.36,0,0,0,1.24.35A2.39,2.39,0,0,0,74.15,64ZM63.33,74.52a2.39,2.39,0,0,0,.88-3.27L63,69.18a2.39,2.39,0,1,0-4.14,2.4l1.19,2.07a2.4,2.4,0,0,0,2.08,1.2,2.35,2.35,0,0,0,1.19-.33Zm.21-47.32,1.25-2a2.4,2.4,0,0,0-4.09-2.5l-1.24,2a2.39,2.39,0,1,0,4.08,2.5Zm-27.27.49a2.39,2.39,0,0,0,.88-3.27L36,22.34a2.4,2.4,0,0,0-4.15,2.4L33,26.81A2.39,2.39,0,0,0,35.08,28a2.47,2.47,0,0,0,1.19-.32Zm-1,45.62,1.25-2a2.39,2.39,0,0,0-4.08-2.5l-1.25,2a2.39,2.39,0,0,0,4.08,2.5ZM69.46,38.24l4.14-2.41a2.4,2.4,0,1,0-2.42-4.14l-4.13,2.42a2.39,2.39,0,1,0,2.41,4.13ZM24.82,64.31,29,61.89a2.39,2.39,0,1,0-2.41-4.13L22.4,60.17a2.4,2.4,0,1,0,2.42,4.14Zm29.87,1.12A2.39,2.39,0,1,0,53,61a13.84,13.84,0,1,1,7.77-7.45,2.39,2.39,0,1,0,4.39,1.9,18.68,18.68,0,1,0-10.45,10ZM42.61,45.49"/></svg>