<svg id="Layer_1" data-name="Layer 1" xmlns="http://www.w3.org/2000/svg" viewBox="0 0 96 96"><defs><style>.cls-1{fill:#fff;}.cls-2{fill:#31ad57;}</style></defs><path class="cls-1" d="M48,0A48,48,0,1,0,96,48,48,48,0,0,0,48,0Z"/><path class="cls-2" d="M48,35.37A12.63,12.63,0,1,0,60.62,48,12.64,12.64,0,0,0,48,35.37Zm0,20.4A7.77,7.77,0,1,1,55.77,48,7.78,7.78,0,0,1,48,55.77ZM79.06,48A30.92,30.92,0,0,1,70,70a2.43,2.43,0,0,1-3.44-3.43,26.24,26.24,0,0,0,0-37.1A2.43,2.43,0,0,1,70,26,30.92,30.92,0,0,1,79.06,48ZM29.47,66.55A2.43,2.43,0,0,1,26,70a31.12,31.12,0,0,1,0-44,2.43,2.43,0,0,1,3.44,3.43,26.24,26.24,0,0,0,0,37.1ZM36,60a2.43,2.43,0,0,1-3.43,3.43,21.85,21.85,0,0,1,0-30.9A2.43,2.43,0,0,1,36,36a17,17,0,0,0,0,24ZM69.84,48a21.68,21.68,0,0,1-6.4,15.45A2.43,2.43,0,0,1,60,60a17,17,0,0,0,0-24,2.43,2.43,0,0,1,3.43-3.43A21.68,21.68,0,0,1,69.84,48Z"/></svg>