<svg id="Layer_1" data-name="Layer 1" xmlns="http://www.w3.org/2000/svg" viewBox="0 0 86 86"><defs><style>.cls-1{fill:#fff;}</style></defs><path class="cls-1" d="M68.79,41.4A27.44,27.44,0,0,0,43,59.55,27.43,27.43,0,0,0,17.22,41.4,1.61,1.61,0,0,0,15.61,43a27.39,27.39,0,0,0,54.78,0A1.6,1.6,0,0,0,68.79,41.4Z"/><path class="cls-1" d="M43,71.08A28.11,28.11,0,0,1,14.93,43a2.29,2.29,0,0,1,2.29-2.29A28.15,28.15,0,0,1,43,57.69a28.15,28.15,0,0,1,25.79-17A2.3,2.3,0,0,1,71.08,43,28.12,28.12,0,0,1,43,71.08Zm-25.78-29a.92.92,0,0,0-.92.92,26.71,26.71,0,1,0,53.41,0,.92.92,0,0,0-.92-.92,26.77,26.77,0,0,0-25.14,17.7L43,61.57l-.64-1.79A26.79,26.79,0,0,0,17.22,42.08Z"/><path class="cls-1" d="M25.91,25.9a24.18,24.18,0,0,1,34.19,0l.12.11a1.61,1.61,0,0,0,2.15-.11,1.62,1.62,0,0,0,0-2.27,27.34,27.34,0,0,0-19.37-8h0a27.3,27.3,0,0,0-19.36,8,1.61,1.61,0,1,0,2.27,2.27Z"/><path class="cls-1" d="M24.77,27.06a2.27,2.27,0,0,1-1.62-.67,2.3,2.3,0,0,1,0-3.24,28.08,28.08,0,0,1,39.7,0,2.3,2.3,0,0,1,0,3.24,2.35,2.35,0,0,1-3.06.16l-.18-.16a23.49,23.49,0,0,0-33.22,0h0A2.27,2.27,0,0,1,24.77,27.06ZM43,16.3a26.51,26.51,0,0,0-18.88,7.82.92.92,0,0,0,1.3,1.3,24.88,24.88,0,0,1,35.17,0,.89.89,0,0,0,1.3,0,.93.93,0,0,0,0-1.3A26.49,26.49,0,0,0,43,16.3Z"/><path class="cls-1" d="M47.94,38.06a1.62,1.62,0,0,0,2.27,0,1.6,1.6,0,0,0,0-2.27,11.35,11.35,0,0,0-1.18-1l-.36-.25-.12-.08-.25-.15-.15-.09-.22-.13L47.76,34l-.22-.11-.17-.08-.22-.11L47,33.61l-.23-.09-.17-.07-.24-.09-.16,0-.28-.09-.13,0-.41-.1-.1,0L45,33l-.16,0-.26,0-.18,0-.24,0h-.18l-.24,0H43a10.17,10.17,0,0,0-7.21,3,1.6,1.6,0,0,0,0,2.27,1.62,1.62,0,0,0,2.27,0A6.93,6.93,0,0,1,43,36h0A6.93,6.93,0,0,1,47.94,38.06Z"/><path class="cls-1" d="M49.08,39.21a2.25,2.25,0,0,1-1.62-.67h0a6.45,6.45,0,0,0-8.91,0,2.29,2.29,0,1,1-3.24-3.24A10.82,10.82,0,0,1,43,32.12h.55l2,.28.43.11.61.19.27.1L49.07,34l.37.27a10.41,10.41,0,0,1,1.25,1.07,2.29,2.29,0,0,1-1.61,3.91Zm-.65-1.64a.92.92,0,0,0,1.3,0,.94.94,0,0,0,0-1.3,9.86,9.86,0,0,0-1.11-.94l-1.91-1.09,0-.73-.23.65-1.31-.42L45.16,33,45,33.7l-1.94-.21a9.54,9.54,0,0,0-6.81,2.78.94.94,0,0,0,0,1.3.92.92,0,0,0,1.31,0,7.69,7.69,0,0,1,10.85,0Z"/><path class="cls-1" d="M53.73,31.7,54,32a1.61,1.61,0,0,0,2.27-2.27A18.73,18.73,0,0,0,43,24.21h0a18.73,18.73,0,0,0-13.29,5.5,1.62,1.62,0,0,0,0,2.27A1.6,1.6,0,0,0,32,32a15.61,15.61,0,0,1,21.16-.82Z"/><path class="cls-1" d="M55.16,33.13a2.32,2.32,0,0,1-1.63-.66l-.27-.27c-.19-.18-.37-.35-.56-.51a14.88,14.88,0,0,0-20.23.78,2.29,2.29,0,0,1-3.24-3.24,19.47,19.47,0,0,1,27.55,0,2.28,2.28,0,0,1-1.62,3.9Zm-.95-1.92.3.29a.92.92,0,1,0,1.29-1.31,18.11,18.11,0,0,0-25.6,0,.93.93,0,0,0,0,1.31.92.92,0,0,0,1.3,0,16.24,16.24,0,0,1,22.08-.85,6.64,6.64,0,0,1,.63.56Z"/><path class="cls-1" d="M43,86A43,43,0,1,1,86,43,43,43,0,0,1,43,86ZM43,3.84A39.17,39.17,0,1,0,82.17,43,39.21,39.21,0,0,0,43,3.84Z"/></svg>