<svg id="Layer_1" data-name="Layer 1" xmlns="http://www.w3.org/2000/svg" viewBox="0 0 96 96"><defs><style>.cls-1,.cls-2{fill:#28a745;}.cls-1{opacity:0.09;}.cls-2{stroke:#28a745;stroke-miterlimit:10;stroke-width:0.25px;}</style></defs><path class="cls-1" d="M48,0A48,48,0,1,0,96,48,48,48,0,0,0,48,0Z"/><path class="cls-2" d="M33.49,27.5a2.33,2.33,0,0,0,2,1.16,2.28,2.28,0,0,0,1.15-.31,2.32,2.32,0,0,0,.85-3.17l-1.16-2a2.31,2.31,0,0,0-4,2.31Z"/><path class="cls-2" d="M59.85,28.65A2.31,2.31,0,0,0,63,27.88l1.21-2a2.31,2.31,0,1,0-3.95-2.41l-1.21,2A2.32,2.32,0,0,0,59.85,28.65Z"/><path class="cls-2" d="M67.6,38.87a2.36,2.36,0,0,0,1.17-.31l4-2.34a2.31,2.31,0,1,0-2.33-4l-4,2.34a2.31,2.31,0,0,0,1.17,4.31Z"/><path class="cls-2" d="M23.47,35.73l4,2.42a2.28,2.28,0,0,0,1.2.34,2.33,2.33,0,0,0,2-1.11,2.31,2.31,0,0,0-.77-3.18l-3.95-2.42a2.32,2.32,0,1,0-2.42,3.95Z"/><path class="cls-2" d="M48,30.28A17.72,17.72,0,1,0,65.72,48,17.72,17.72,0,0,0,48,30.28Zm0,31.1A13.38,13.38,0,1,1,61.38,48,13.38,13.38,0,0,1,48,61.38Z"/><path class="cls-2" d="M48,27.62a2.31,2.31,0,0,0,2.32-2.31V20.67a2.32,2.32,0,0,0-4.64,0v4.64A2.31,2.31,0,0,0,48,27.62Z"/><path class="cls-2" d="M62.52,68.49a2.32,2.32,0,0,0-4,2.32l1.16,2a2.32,2.32,0,0,0,2,1.15,2.28,2.28,0,0,0,1.15-.31,2.31,2.31,0,0,0,.85-3.16Z"/><path class="cls-2" d="M72.53,60.27l-4-2.42a2.31,2.31,0,1,0-2.41,3.95l4,2.42a2.32,2.32,0,1,0,2.42-3.95Z"/><path class="cls-2" d="M75.33,45.68H73a2.32,2.32,0,0,0,0,4.64h2.32a2.32,2.32,0,0,0,0-4.64Z"/><path class="cls-2" d="M27.23,57.44l-4,2.34a2.31,2.31,0,0,0,1.17,4.31,2.35,2.35,0,0,0,1.16-.31l4-2.34a2.32,2.32,0,0,0-2.34-4Z"/><path class="cls-2" d="M48,68.38a2.31,2.31,0,0,0-2.32,2.31v4.64a2.32,2.32,0,0,0,4.64,0V70.69A2.31,2.31,0,0,0,48,68.38Z"/><path class="cls-2" d="M25.31,48A2.32,2.32,0,0,0,23,45.68H20.67a2.32,2.32,0,0,0,0,4.64H23A2.32,2.32,0,0,0,25.31,48Z"/><path class="cls-2" d="M36.11,67.33a2.31,2.31,0,0,0-3.18.76l-1.21,2a2.31,2.31,0,1,0,3.94,2.43l1.21-2A2.32,2.32,0,0,0,36.11,67.33Z"/></svg>