<svg id="Layer_1" data-name="Layer 1" xmlns="http://www.w3.org/2000/svg" viewBox="0 0 96 96"><defs><style>.cls-1,.cls-2{fill:#28a745;}.cls-1{opacity:0.09;}.cls-2{stroke:#28a745;stroke-miterlimit:10;stroke-width:0.25px;}</style></defs><path class="cls-1" d="M48,0A48,48,0,1,0,96,48,48,48,0,0,0,48,0Z"/><path class="cls-2" d="M59.61,32.66c-4.93-6.68-9.78-12-10-12.21a2.21,2.21,0,0,0-3.26,0c-.2.22-5,5.53-10,12.21C29.59,41.88,26.13,49,26.13,53.75v.6A21.87,21.87,0,0,0,58.69,73.48a2.21,2.21,0,1,0-2.17-3.85A17.45,17.45,0,0,1,30.84,57.55a6.58,6.58,0,0,0,3.13.83c2.26,0,4.47-1.27,6.56-3.78a.66.66,0,0,1,.51-.19.65.65,0,0,1,.5.19c2.1,2.51,4.3,3.78,6.56,3.78s4.47-1.27,6.56-3.78a.69.69,0,0,1,.51-.19.68.68,0,0,1,.51.19c2.09,2.51,4.3,3.78,6.56,3.78a6.52,6.52,0,0,0,2.9-.71,17.45,17.45,0,0,1-1.66,4.77,2.21,2.21,0,0,0,3.92,2,22.06,22.06,0,0,0,2.47-10.13v-.6C69.87,49,66.41,41.88,59.61,32.66ZM62.24,54c-.85,0-2-.8-3.17-2.19a5.16,5.16,0,0,0-7.8,0C50.11,53.16,49,54,48.1,54s-2-.8-3.17-2.19a5.15,5.15,0,0,0-7.79,0C36,53.16,34.82,54,34,54s-2-.79-3.17-2.18c.88-3.85,4-9.57,9.13-16.47,3.1-4.21,6.23-7.93,8.07-10,1.83,2.1,5,5.81,8,10,5.19,7,8.38,12.84,9.19,16.69C64.13,53.24,63.05,54,62.24,54Z"/></svg>