<svg id="Layer_1" data-name="Layer 1" xmlns="http://www.w3.org/2000/svg" viewBox="0 0 96 96"><defs><style>.cls-1{fill:#fff;}.cls-2{fill:#31ad57;}</style></defs><path class="cls-1" d="M48,0A48,48,0,1,0,96,48,48,48,0,0,0,48,0Z"/><path class="cls-2" d="M46.54,34.68a2.39,2.39,0,0,0-2.39,2.39V60.13a4.79,4.79,0,1,0,4.79,0V37.07A2.39,2.39,0,0,0,46.54,34.68Z"/><path class="cls-2" d="M61.42,39.65a2.4,2.4,0,1,0,0-4.79H57.31v-3h4.11a2.39,2.39,0,1,0,0-4.78h-4.2a11,11,0,0,0-10.86-9.68A10.79,10.79,0,0,0,35.77,28.13V54.78A14.36,14.36,0,1,0,58.27,56a2.4,2.4,0,1,0-3.93,2.75,9.48,9.48,0,0,1,1.78,5.41A9.58,9.58,0,1,1,37,64.28a9.54,9.54,0,0,1,2.86-6.83,2.41,2.41,0,0,0,.73-1.72V28.34a6.13,6.13,0,0,1,5.57-6.18,6,6,0,0,1,6.4,6v17a2.39,2.39,0,0,0,2.39,2.39h6.5a2.4,2.4,0,1,0,0-4.79H57.31v-3Z"/></svg>