<svg id="Layer_1" data-name="Layer 1" xmlns="http://www.w3.org/2000/svg" viewBox="0 0 96 96"><defs><style>.cls-1{fill:#18b21b;opacity:0.09;}.cls-2{fill:#31ad57;}</style></defs><path class="cls-1" d="M48,0A48,48,0,1,0,96,48,48,48,0,0,0,48,0Z"/><path class="cls-2" d="M60.22,21.73H34a5,5,0,0,0-5,5v41.9a5,5,0,0,0,3.4,4.75l14,4.67A5,5,0,0,0,53,73.28V31.38a5,5,0,0,0-3.4-4.75L47.4,25.9H60.22a2.57,2.57,0,0,1,2.57,2.57V64.55a2.57,2.57,0,0,1-2.57,2.57h-1a2.09,2.09,0,0,0,0,4.17h1A6.74,6.74,0,0,0,67,64.55V28.47A6.74,6.74,0,0,0,60.22,21.73Zm-25.91,4.2,13.93,4.64a.87.87,0,0,1,.59.81v41.9a.83.83,0,0,1-.83.82,1,1,0,0,1-.27,0L33.79,69.42a.85.85,0,0,1-.58-.8V26.72A.82.82,0,0,1,34,25.9,1.12,1.12,0,0,1,34.31,25.93Z"/><path class="cls-2" d="M43.65,54.53a2.27,2.27,0,1,0-2.26-2.27A2.27,2.27,0,0,0,43.65,54.53Z"/></svg>