<svg id="Layer_1" data-name="Layer 1" xmlns="http://www.w3.org/2000/svg" viewBox="0 0 96 96"><defs><style>.cls-1{fill:#fff;}.cls-2{fill:#31ad57;}</style></defs><path class="cls-1" d="M48,0A48,48,0,1,0,96,48,48,48,0,0,0,48,0Z"/><path class="cls-2" d="M60,31.37c-5.34-7.23-10.59-13-10.81-13.23a2.44,2.44,0,0,0-1.77-.78,2.4,2.4,0,0,0-1.76.78c-.22.24-5.48,6-10.81,13.23-7.38,10-11.12,17.69-11.12,22.86v.65A23.69,23.69,0,0,0,59,75.61a2.39,2.39,0,1,0-2.35-4.17A18.9,18.9,0,0,1,28.79,58.35a7.05,7.05,0,0,0,3.39.9c2.45,0,4.84-1.38,7.11-4.09a.69.69,0,0,1,.55-.22.68.68,0,0,1,.54.22c2.27,2.71,4.67,4.09,7.11,4.09s4.85-1.38,7.11-4.09a.71.71,0,0,1,.55-.22.69.69,0,0,1,.55.22c2.27,2.71,4.66,4.09,7.11,4.09A7,7,0,0,0,66,58.48a19,19,0,0,1-1.79,5.17,2.39,2.39,0,1,0,4.24,2.21,23.88,23.88,0,0,0,2.68-11v-.65C71.08,49.06,67.34,41.37,60,31.37Zm2.85,23.09c-.92,0-2.17-.86-3.43-2.37a5.57,5.57,0,0,0-8.45,0c-1.26,1.51-2.51,2.37-3.44,2.37s-2.17-.86-3.43-2.37a5.57,5.57,0,0,0-8.45,0c-1.26,1.51-2.51,2.37-3.43,2.37S30,53.6,28.75,52.09c.95-4.16,4.37-10.37,9.88-17.84,3.37-4.56,6.76-8.59,8.75-10.88,2,2.28,5.37,6.29,8.73,10.84,5.62,7.62,9.07,13.92,10,18.09C64.87,53.68,63.69,54.46,62.81,54.46Z"/></svg>